<svg width="18" height="18" viewBox="0 0 18 18" fill="none" xmlns="http://www.w3.org/2000/svg">
<g id="left">
<path id="vector" fill-rule="evenodd" clip-rule="evenodd" d="M7.28033 3.21967C7.57322 3.51256 7.57322 3.98744 7.28033 4.28033L3.31065 8.25002H16.5C16.9142 8.25002 17.25 8.58581 17.25 9.00002C17.25 9.41424 16.9142 9.75002 16.5 9.75002H3.31067L7.28033 13.7197C7.57322 14.0126 7.57322 14.4874 7.28033 14.7803C6.98744 15.0732 6.51257 15.0732 6.21967 14.7803L0.969671 9.53035C0.829019 9.3897 0.75 9.19894 0.75 9.00003C0.75 8.80111 0.829017 8.61035 0.969669 8.46969L6.21967 3.21967C6.51256 2.92678 6.98744 2.92678 7.28033 3.21967Z" fill="white"/>
</g>
</svg>
